<svg width="27" height="27" fill="none" xmlns="http://www.w3.org/2000/svg"><path fill-rule="evenodd" clip-rule="evenodd" d="M4.219 10.688a9.281 9.281 0 1118.562 0c0 3.955-2.265 7.663-4.407 10.304a33.424 33.424 0 01-3.96 4.093 19.373 19.373 0 01-.357.3l-.021.017-.006.005-.002.001-.528-.658-.527.659-.001-.001-.002-.002-.006-.004-.02-.017a29.32 29.32 0 01-1.34-1.19 33.429 33.429 0 01-2.978-3.203c-2.142-2.641-4.407-6.35-4.407-10.305zM13.5 24.75l-.527.659a.844.844 0 001.054 0l-.527-.659zm0-1.108a31.732 31.732 0 003.563-3.713c2.077-2.56 4.03-5.884 4.03-9.241a7.594 7.594 0 00-15.187 0c0 3.357 1.954 6.68 4.03 9.242a31.727 31.727 0 003.564 3.712z" fill="#fff"/><path fill-rule="evenodd" clip-rule="evenodd" d="M9.281 10.688a4.219 4.219 0 118.438 0 4.219 4.219 0 01-8.438 0zM13.5 8.155a2.531 2.531 0 100 5.063 2.531 2.531 0 000-5.063z" fill="#fff"/></svg>