<svg width="27" height="27" fill="none" xmlns="http://www.w3.org/2000/svg"><path fill-rule="evenodd" clip-rule="evenodd" d="M1.406 5.063c0-.466.378-.844.844-.844h22.5c.466 0 .844.378.844.843v16.875a.844.844 0 01-.844.844H2.25a.844.844 0 01-.844-.843V5.063zm1.688.843v15.188h20.812V5.906H3.094z" fill="#fff"/><path fill-rule="evenodd" clip-rule="evenodd" d="M1.575 4.556a.844.844 0 011.181-.168L13.5 12.445l10.744-8.057a.844.844 0 111.012 1.35l-11.25 8.437a.844.844 0 01-1.012 0L1.744 5.738a.844.844 0 01-.169-1.182z" fill="#fff"/><path fill-rule="evenodd" clip-rule="evenodd" d="M1.406 5.063c0-.466.378-.844.844-.844H13.5a.844.844 0 110 1.687H3.094V13.5a.844.844 0 11-1.688 0V5.062z" fill="#fff"/><path fill-rule="evenodd" clip-rule="evenodd" d="M12.656 5.063c0-.466.378-.844.844-.844h11.25c.466 0 .844.378.844.843V13.5a.844.844 0 01-1.688 0V5.906H13.5a.844.844 0 01-.844-.843z" fill="#fff"/></svg>