<svg width="61" height="61" viewBox="0 0 61 61" fill="none" xmlns="http://www.w3.org/2000/svg">
<path d="M12.9863 48.0137C10.7941 45.8215 12.2477 41.2227 11.1277 38.5301C10.0078 35.8375 5.71875 33.4785 5.71875 30.5C5.71875 27.5215 9.96016 25.2578 11.1277 22.4699C12.2953 19.682 10.7941 15.1785 12.9863 12.9863C15.1785 10.7941 19.7773 12.2477 22.4699 11.1277C25.1625 10.0078 27.5215 5.71875 30.5 5.71875C33.4785 5.71875 35.7422 9.96016 38.5301 11.1277C41.318 12.2953 45.8215 10.7941 48.0137 12.9863C50.2059 15.1785 48.7523 19.7773 49.8723 22.4699C50.9922 25.1625 55.2812 27.5215 55.2812 30.5C55.2812 33.4785 51.0398 35.7422 49.8723 38.5301C48.7047 41.318 50.2059 45.8215 48.0137 48.0137C45.8215 50.2059 41.2227 48.7523 38.5301 49.8723C35.8375 50.9922 33.4785 55.2812 30.5 55.2812C27.5215 55.2812 25.2578 51.0398 22.4699 49.8723C19.682 48.7047 15.1785 50.2059 12.9863 48.0137Z" stroke="#49A399" stroke-width="4" stroke-linecap="round" stroke-linejoin="round"/>
<path d="M40.9844 24.7812L26.9973 38.125L20.0156 31.4531" stroke="#49A399" stroke-width="4" stroke-linecap="round" stroke-linejoin="round"/>
</svg>
