<svg width="27" height="28" viewBox="0 0 27 28" fill="none" xmlns="http://www.w3.org/2000/svg">
<path d="M13.5 8.99365V14.0562" stroke="#fff" stroke-width="2" stroke-linecap="round" stroke-linejoin="round"/>
<path d="M17.8875 16.5874L13.5 14.0562" stroke="#fff" stroke-width="2" stroke-linecap="round" stroke-linejoin="round"/>
<path d="M19.4277 11.0713H23.6465V6.85254" stroke="#fff" stroke-width="2" stroke-linecap="round" stroke-linejoin="round"/>
<path d="M20.0597 20.6163C18.7619 21.9151 17.1082 22.7998 15.3076 23.1585C13.507 23.5172 11.6405 23.3339 9.94411 22.6316C8.24774 21.9294 6.79776 20.7398 5.77759 19.2133C4.75742 17.6869 4.21289 15.8921 4.21289 14.0562C4.21289 12.2202 4.75742 10.4254 5.77759 8.89898C6.79776 7.37253 8.24774 6.18293 9.94411 5.48068C11.6405 4.77842 13.507 4.59506 15.3076 4.9538C17.1082 5.31253 18.7619 6.19724 20.0597 7.496L23.6456 11.0714" stroke="#fff" stroke-width="2" stroke-linecap="round" stroke-linejoin="round"/>
</svg>
