<svg width="61" height="61" viewBox="0 0 61 61" fill="none" xmlns="http://www.w3.org/2000/svg">
<path fill-rule="evenodd" clip-rule="evenodd" d="M25.416 12.0728C22.2576 12.0728 19.6973 14.6331 19.6973 17.7915V18.4269H42.5723V17.7915C42.5723 14.6331 40.0119 12.0728 36.8535 12.0728H25.416ZM15.8848 17.7915C15.8848 12.5276 20.1521 8.26025 25.416 8.26025H36.8535C42.1175 8.26025 46.3848 12.5276 46.3848 17.7915V20.3332C46.3848 21.386 45.5313 22.2394 44.4785 22.2394H17.791C16.7382 22.2394 15.8848 21.386 15.8848 20.3332V17.7915Z" fill="#49A399"/>
<path fill-rule="evenodd" clip-rule="evenodd" d="M3.91085 30.2685C4.37353 29.9072 4.97684 29.7793 5.54632 29.9217L30.3465 36.1217C30.4475 36.147 30.5534 36.1471 30.6544 36.1218L55.455 29.9217C56.0245 29.7793 56.6278 29.9072 57.0905 30.2685C57.5531 30.6297 57.8236 31.184 57.8236 31.771V48.2918C57.8236 50.7484 55.8322 52.7398 53.3757 52.7398H7.62565C5.16915 52.7398 3.17773 50.7484 3.17773 48.2918V31.771C3.17773 31.184 3.44818 30.6297 3.91085 30.2685ZM6.99023 34.2125V48.2918C6.99023 48.6428 7.2747 48.9273 7.62565 48.9273H53.3757C53.7266 48.9273 54.0111 48.6428 54.0111 48.2918V34.2125L31.5799 39.8203C31.5797 39.8203 31.58 39.8202 31.5799 39.8203C30.8716 39.9974 30.1301 39.9975 29.4218 39.8204C29.4217 39.8203 29.422 39.8204 29.4218 39.8204L6.99023 34.2125Z" fill="#49A399"/>
<path fill-rule="evenodd" clip-rule="evenodd" d="M3.17773 22.8752C3.17773 20.4186 5.16915 18.4272 7.62565 18.4272H53.3757C55.8322 18.4272 57.8236 20.4186 57.8236 22.8752V34.3127C57.8236 35.3655 56.9701 36.2189 55.9173 36.2189C54.8645 36.2189 54.0111 35.3655 54.0111 34.3127V22.8752C54.0111 22.5242 53.7266 22.2397 53.3757 22.2397H7.62565C7.2747 22.2397 6.99023 22.5242 6.99023 22.8752V34.3127C6.99023 35.3655 6.13678 36.2189 5.08398 36.2189C4.03119 36.2189 3.17773 35.3655 3.17773 34.3127V22.8752Z" fill="#49A399"/>
<path d="M33.6764 29.2293C33.6764 30.984 32.254 32.4064 30.4993 32.4064C28.7447 32.4064 27.3223 30.984 27.3223 29.2293C27.3223 27.4747 28.7447 26.0522 30.4993 26.0522C32.254 26.0522 33.6764 27.4747 33.6764 29.2293Z" fill="#49A399"/>
</svg>
