<svg width="61" height="61" viewBox="0 0 61 61" fill="none" xmlns="http://www.w3.org/2000/svg">
<path fill-rule="evenodd" clip-rule="evenodd" d="M10.1667 29.8647C9.81574 29.8647 9.53125 30.1492 9.53125 30.5002V53.3752C9.53125 53.7261 9.81574 54.0106 10.1667 54.0106H50.8333C51.1843 54.0106 51.4688 53.7261 51.4688 53.3752V30.5002C51.4688 30.1492 51.1843 29.8647 50.8333 29.8647H10.1667ZM5.71875 30.5002C5.71875 28.0436 7.71015 26.0522 10.1667 26.0522H50.8333C53.2898 26.0522 55.2812 28.0436 55.2812 30.5002V53.3752C55.2812 55.8317 53.2898 57.8231 50.8333 57.8231H10.1667C7.71015 57.8231 5.71875 55.8317 5.71875 53.3752V30.5002Z" fill="#49A399"/>
<path fill-rule="evenodd" clip-rule="evenodd" d="M30.4993 6.98975C24.5336 6.98975 19.6973 11.826 19.6973 17.7918V27.9585C19.6973 29.0113 18.8438 29.8647 17.791 29.8647C16.7382 29.8647 15.8848 29.0113 15.8848 27.9585V17.7918C15.8848 9.72041 22.428 3.17725 30.4993 3.17725C38.5707 3.17725 45.1139 9.72041 45.1139 17.7918V27.9585C45.1139 29.0113 44.2605 29.8647 43.2077 29.8647C42.1549 29.8647 41.3014 29.0113 41.3014 27.9585V17.7918C41.3014 11.826 36.4651 6.98975 30.4993 6.98975Z" fill="#49A399"/>
<path fill-rule="evenodd" clip-rule="evenodd" d="M30.5 36.2188C31.5528 36.2188 32.4062 37.0722 32.4062 38.125V45.75C32.4062 46.8028 31.5528 47.6562 30.5 47.6562C29.4472 47.6562 28.5938 46.8028 28.5938 45.75V38.125C28.5938 37.0722 29.4472 36.2188 30.5 36.2188Z" fill="#49A399"/>
</svg>
