<svg width="193" height="43" viewBox="0 0 193 43" fill="none" xmlns="http://www.w3.org/2000/svg">
<path d="M10 7.25098H0V17.5635H10V7.25098Z" fill="white"/>
<path d="M10 21.6885H0V32.001H10V21.6885Z" fill="white"/>
<path d="M24 21.6885H14V32.001H24V21.6885Z" fill="white"/>
<path d="M24.0601 7.90067L24.0001 7.25098L23.3601 7.45723C22.2701 7.82848 21.1101 7.94192 19.9601 7.78723C18.7601 7.6016 17.5301 7.76661 16.4201 8.2513C15.8301 8.4988 15.3201 8.88036 14.9201 9.37536C14.5201 9.87037 14.2601 10.4479 14.1501 11.0666C14.0101 11.8607 14.0801 12.6857 14.3601 13.4488C14.5401 13.057 14.7501 12.6754 14.9901 12.3041C15.5301 11.5307 16.2701 10.9119 17.1501 10.5201C17.9901 10.1488 18.9101 9.96318 19.8301 10.0044C18.9501 10.1385 18.1101 10.4479 17.3601 10.9119C17.0001 11.1388 16.6701 11.4069 16.3701 11.706C16.0901 12.0154 15.8401 12.3454 15.6301 12.696C15.2401 13.4385 14.9601 14.2326 14.8001 15.0576C14.6301 15.8826 14.5401 16.7179 14.5201 17.5635H15.5801C15.6301 16.8107 15.7301 16.0579 15.8901 15.3154C16.6201 15.7073 17.4501 15.9032 18.2801 15.8929C19.0601 15.8929 19.8301 15.7382 20.5501 15.4392C24.5901 13.7582 24.0601 8.13786 24.0601 7.90067Z" fill="white"/>
<path d="M127.124 32V23.735C127.124 22.835 127.039 22.01 126.869 21.26C126.699 20.5 126.424 19.84 126.044 19.28C125.674 18.71 125.189 18.27 124.589 17.96C123.999 17.65 123.279 17.495 122.429 17.495C121.649 17.495 120.959 17.63 120.359 17.9C119.769 18.17 119.269 18.56 118.859 19.07C118.459 19.57 118.154 20.18 117.944 20.9C117.734 21.62 117.629 22.44 117.629 23.36L116.069 23.015C116.069 21.355 116.359 19.96 116.939 18.83C117.519 17.7 118.319 16.845 119.339 16.265C120.359 15.685 121.529 15.395 122.849 15.395C123.819 15.395 124.664 15.545 125.384 15.845C126.114 16.145 126.729 16.55 127.229 17.06C127.739 17.57 128.149 18.155 128.459 18.815C128.769 19.465 128.994 20.16 129.134 20.9C129.274 21.63 129.344 22.36 129.344 23.09V32H127.124ZM115.409 32V10.4H117.404V22.595H117.629V32H115.409ZM140.002 32.45C138.392 32.45 137.017 32.085 135.877 31.355C134.737 30.625 133.862 29.615 133.252 28.325C132.642 27.035 132.337 25.555 132.337 23.885C132.337 22.185 132.647 20.695 133.267 19.415C133.887 18.135 134.767 17.14 135.907 16.43C137.057 15.71 138.422 15.35 140.002 15.35C141.622 15.35 143.002 15.715 144.142 16.445C145.292 17.165 146.167 18.17 146.767 19.46C147.377 20.74 147.682 22.215 147.682 23.885C147.682 25.585 147.377 27.08 146.767 28.37C146.157 29.65 145.277 30.65 144.127 31.37C142.977 32.09 141.602 32.45 140.002 32.45ZM140.002 30.335C141.802 30.335 143.142 29.74 144.022 28.55C144.902 27.35 145.342 25.795 145.342 23.885C145.342 21.925 144.897 20.365 144.007 19.205C143.127 18.045 141.792 17.465 140.002 17.465C138.792 17.465 137.792 17.74 137.002 18.29C136.222 18.83 135.637 19.585 135.247 20.555C134.867 21.515 134.677 22.625 134.677 23.885C134.677 25.835 135.127 27.4 136.027 28.58C136.927 29.75 138.252 30.335 140.002 30.335ZM170.311 32L170.326 21.365C170.326 20.115 169.976 19.135 169.276 18.425C168.586 17.705 167.706 17.345 166.636 17.345C166.026 17.345 165.431 17.485 164.851 17.765C164.271 18.045 163.791 18.495 163.411 19.115C163.041 19.735 162.856 20.545 162.856 21.545L161.551 21.17C161.521 20.01 161.746 18.995 162.226 18.125C162.716 17.255 163.386 16.58 164.236 16.1C165.096 15.61 166.066 15.365 167.146 15.365C168.776 15.365 170.081 15.87 171.061 16.88C172.041 17.88 172.531 19.235 172.531 20.945L172.516 32H170.311ZM150.976 32V15.8H152.956V19.79H153.196V32H150.976ZM160.666 32L160.681 21.515C160.681 20.225 160.336 19.21 159.646 18.47C158.966 17.72 158.066 17.345 156.946 17.345C155.826 17.345 154.921 17.73 154.231 18.5C153.541 19.26 153.196 20.275 153.196 21.545L151.876 20.825C151.876 19.785 152.121 18.855 152.611 18.035C153.101 17.205 153.771 16.555 154.621 16.085C155.471 15.605 156.436 15.365 157.516 15.365C158.546 15.365 159.461 15.585 160.261 16.025C161.071 16.465 161.706 17.105 162.166 17.945C162.626 18.785 162.856 19.805 162.856 21.005L162.841 32H160.666ZM183.158 32.45C181.578 32.45 180.208 32.1 179.048 31.4C177.898 30.7 177.003 29.715 176.363 28.445C175.723 27.175 175.403 25.685 175.403 23.975C175.403 22.205 175.718 20.675 176.348 19.385C176.978 18.095 177.863 17.1 179.003 16.4C180.153 15.7 181.508 15.35 183.068 15.35C184.668 15.35 186.033 15.72 187.163 16.46C188.293 17.19 189.148 18.24 189.728 19.61C190.308 20.98 190.573 22.615 190.523 24.515H188.273V23.735C188.233 21.635 187.778 20.05 186.908 18.98C186.048 17.91 184.788 17.375 183.128 17.375C181.388 17.375 180.053 17.94 179.123 19.07C178.203 20.2 177.743 21.81 177.743 23.9C177.743 25.94 178.203 27.525 179.123 28.655C180.053 29.775 181.368 30.335 183.068 30.335C184.228 30.335 185.238 30.07 186.098 29.54C186.968 29 187.653 28.225 188.153 27.215L190.208 28.01C189.568 29.42 188.623 30.515 187.373 31.295C186.133 32.065 184.728 32.45 183.158 32.45ZM176.963 24.515V22.67H189.338V24.515H176.963Z" fill="white"/>
<path d="M38.237 32.6229C36.577 32.6229 35.167 32.2529 34.007 31.5129C32.847 30.7729 31.957 29.7579 31.337 28.4679C30.727 27.1779 30.417 25.7129 30.407 24.0729C30.417 22.4029 30.737 20.9279 31.367 19.6479C31.997 18.3579 32.897 17.3479 34.067 16.6179C35.237 15.8879 36.642 15.5229 38.282 15.5229C40.052 15.5229 41.562 15.9629 42.812 16.8429C44.072 17.7229 44.902 18.9279 45.302 20.4579L42.182 21.3579C41.872 20.4479 41.362 19.7429 40.652 19.2429C39.952 18.7329 39.147 18.4779 38.237 18.4779C37.207 18.4779 36.362 18.7229 35.702 19.2129C35.042 19.6929 34.552 20.3529 34.232 21.1929C33.912 22.0329 33.747 22.9929 33.737 24.0729C33.747 25.7429 34.127 27.0929 34.877 28.1229C35.637 29.1529 36.757 29.6679 38.237 29.6679C39.247 29.6679 40.062 29.4379 40.682 28.9779C41.312 28.5079 41.792 27.8379 42.122 26.9679L45.302 27.7179C44.772 29.2979 43.897 30.5129 42.677 31.3629C41.457 32.2029 39.977 32.6229 38.237 32.6229ZM48.2184 32.1729V10.1229H51.3534V32.1729H48.2184ZM63.0428 32.6229C61.4328 32.6229 60.0178 32.2729 58.7978 31.5729C57.5878 30.8629 56.6428 29.8779 55.9628 28.6179C55.2928 27.3479 54.9578 25.8779 54.9578 24.2079C54.9578 22.4379 55.2878 20.9029 55.9478 19.6029C56.6178 18.3029 57.5478 17.2979 58.7378 16.5879C59.9278 15.8779 61.3128 15.5229 62.8928 15.5229C64.5428 15.5229 65.9478 15.9079 67.1078 16.6779C68.2678 17.4379 69.1328 18.5229 69.7028 19.9329C70.2828 21.3429 70.5128 23.0179 70.3928 24.9579H67.2578V23.8179C67.2378 21.9379 66.8778 20.5479 66.1778 19.6479C65.4878 18.7479 64.4328 18.2979 63.0128 18.2979C61.4428 18.2979 60.2628 18.7929 59.4728 19.7829C58.6828 20.7729 58.2878 22.2029 58.2878 24.0729C58.2878 25.8529 58.6828 27.2329 59.4728 28.2129C60.2628 29.1829 61.4028 29.6679 62.8928 29.6679C63.8728 29.6679 64.7178 29.4479 65.4278 29.0079C66.1478 28.5579 66.7078 27.9179 67.1078 27.0879L70.1828 28.0629C69.5528 29.5129 68.5978 30.6379 67.3178 31.4379C66.0378 32.2279 64.6128 32.6229 63.0428 32.6229ZM57.2678 24.9579V22.5129H68.8328V24.9579H57.2678ZM78.0402 32.6229C76.8402 32.6229 75.8352 32.4029 75.0252 31.9629C74.2152 31.5129 73.6002 30.9229 73.1802 30.1929C72.7702 29.4529 72.5652 28.6429 72.5652 27.7629C72.5652 26.9429 72.7102 26.2229 73.0002 25.6029C73.2902 24.9829 73.7202 24.4579 74.2902 24.0279C74.8602 23.5879 75.5602 23.2329 76.3902 22.9629C77.1102 22.7529 77.9252 22.5679 78.8352 22.4079C79.7452 22.2479 80.7002 22.0979 81.7002 21.9579C82.7102 21.8179 83.7102 21.6779 84.7002 21.5379L83.5602 22.1679C83.5802 20.8979 83.3102 19.9579 82.7502 19.3479C82.2002 18.7279 81.2502 18.4179 79.9002 18.4179C79.0502 18.4179 78.2702 18.6179 77.5602 19.0179C76.8502 19.4079 76.3552 20.0579 76.0752 20.9679L73.1502 20.0679C73.5502 18.6779 74.3102 17.5729 75.4302 16.7529C76.5602 15.9329 78.0602 15.5229 79.9302 15.5229C81.3802 15.5229 82.6402 15.7729 83.7102 16.2729C84.7902 16.7629 85.5802 17.5429 86.0802 18.6129C86.3402 19.1429 86.5002 19.7029 86.5602 20.2929C86.6202 20.8829 86.6502 21.5179 86.6502 22.1979V32.1729H83.8752V28.4679L84.4152 28.9479C83.7452 30.1879 82.8902 31.1129 81.8502 31.7229C80.8202 32.3229 79.5502 32.6229 78.0402 32.6229ZM78.5952 30.0579C79.4852 30.0579 80.2502 29.9029 80.8902 29.5929C81.5302 29.2729 82.0452 28.8679 82.4352 28.3779C82.8252 27.8879 83.0802 27.3779 83.2002 26.8479C83.3702 26.3679 83.4652 25.8279 83.4852 25.2279C83.5152 24.6279 83.5302 24.1479 83.5302 23.7879L84.5502 24.1629C83.5602 24.3129 82.6602 24.4479 81.8502 24.5679C81.0402 24.6879 80.3052 24.8079 79.6452 24.9279C78.9952 25.0379 78.4152 25.1729 77.9052 25.3329C77.4752 25.4829 77.0902 25.6629 76.7502 25.8729C76.4202 26.0829 76.1552 26.3379 75.9552 26.6379C75.7652 26.9379 75.6702 27.3029 75.6702 27.7329C75.6702 28.1529 75.7752 28.5429 75.9852 28.9029C76.1952 29.2529 76.5152 29.5329 76.9452 29.7429C77.3752 29.9529 77.9252 30.0579 78.5952 30.0579ZM101.915 32.1729V24.2079C101.915 23.5779 101.86 22.9329 101.75 22.2729C101.65 21.6029 101.45 20.9829 101.15 20.4129C100.86 19.8429 100.445 19.3829 99.9053 19.0329C99.3753 18.6829 98.6803 18.5079 97.8203 18.5079C97.2603 18.5079 96.7303 18.6029 96.2303 18.7929C95.7303 18.9729 95.2903 19.2679 94.9103 19.6779C94.5403 20.0879 94.2453 20.6279 94.0253 21.2979C93.8153 21.9679 93.7103 22.7829 93.7103 23.7429L91.7603 23.0079C91.7603 21.5379 92.0353 20.2429 92.5853 19.1229C93.1353 17.9929 93.9253 17.1129 94.9553 16.4829C95.9853 15.8529 97.2303 15.5379 98.6903 15.5379C99.8103 15.5379 100.75 15.7179 101.51 16.0779C102.27 16.4379 102.885 16.9129 103.355 17.5029C103.835 18.0829 104.2 18.7179 104.45 19.4079C104.7 20.0979 104.87 20.7729 104.96 21.4329C105.05 22.0929 105.095 22.6729 105.095 23.1729V32.1729H101.915ZM90.5303 32.1729V15.9729H93.3353V20.6529H93.7103V32.1729H90.5303Z" fill="white"/>
</svg>
