<svg width="61" height="61" viewBox="0 0 61 61" fill="none" xmlns="http://www.w3.org/2000/svg">
<path fill-rule="evenodd" clip-rule="evenodd" d="M19.6973 16.5208C19.6973 10.555 24.5335 5.71875 30.4993 5.71875C36.4652 5.71875 41.3014 10.555 41.3014 16.5208C41.3014 22.4867 36.4652 27.3229 30.4993 27.3229C24.5335 27.3229 19.6973 22.4867 19.6973 16.5208ZM30.4993 9.53125C26.6391 9.53125 23.5098 12.6606 23.5098 16.5208C23.5098 20.3811 26.6391 23.5104 30.4993 23.5104C34.3596 23.5104 37.4889 20.3811 37.4889 16.5208C37.4889 12.6606 34.3596 9.53125 30.4993 9.53125Z" fill="#49A399"/>
<path fill-rule="evenodd" clip-rule="evenodd" d="M16.8135 8.12885C17.4158 8.99233 17.204 10.1806 16.3406 10.7829C14.5251 12.0492 13.3437 14.1471 13.3437 16.5208C13.3437 19.061 14.6978 21.2869 16.7325 22.513C17.6343 23.0564 17.9248 24.2278 17.3814 25.1296C16.8381 26.0313 15.6666 26.3219 14.7648 25.7785C11.6329 23.8913 9.53125 20.4524 9.53125 16.5208C9.53125 12.8483 11.3656 9.60469 14.1594 7.65592C15.0229 7.05363 16.2112 7.26536 16.8135 8.12885Z" fill="#49A399"/>
<path fill-rule="evenodd" clip-rule="evenodd" d="M44.1867 8.12885C44.789 7.26536 45.9772 7.05363 46.8407 7.65592C49.6346 9.60469 51.4689 12.8483 51.4689 16.5207C51.4689 20.1931 49.6346 23.4368 46.8407 25.3856C45.9772 25.9879 44.7889 25.7761 44.1867 24.9126C43.5844 24.0491 43.7961 22.8608 44.6596 22.2586C46.475 20.9923 47.6564 18.8943 47.6564 16.5207C47.6564 14.1471 46.4751 12.0492 44.6596 10.7829C43.7961 10.1806 43.5844 8.99233 44.1867 8.12885Z" fill="#49A399"/>
<path fill-rule="evenodd" clip-rule="evenodd" d="M30.4304 33.6772H30.5696C32.8792 33.6772 34.7096 33.6772 36.1925 33.7784C37.7074 33.8818 38.9983 34.0971 40.2035 34.5963C43.1616 35.8215 45.512 38.1719 46.7372 41.13C47.2364 42.3352 47.4517 43.6261 47.5551 45.141C47.6563 46.6239 47.6563 48.4543 47.6562 50.7639V53.3752C47.6562 54.428 46.8028 55.2814 45.75 55.2814H15.25C14.1972 55.2814 13.3438 54.428 13.3438 53.3752L13.3438 50.7639C13.3437 48.4543 13.3437 46.6239 13.4449 45.141C13.5483 43.6261 13.7636 42.3352 14.2628 41.13C15.488 38.1719 17.8383 35.8216 20.7965 34.5963M30.4304 33.6772C28.1208 33.6772 26.2904 33.6772 24.8075 33.7784L30.4304 33.6772ZM24.8075 33.7784C23.2926 33.8818 22.0017 34.0971 20.7965 34.5963L24.8075 33.7784ZM25.067 37.5821C23.7463 37.6722 22.9187 37.8439 22.2555 38.1186C20.2315 38.9569 18.6234 40.565 17.7851 42.589C17.5104 43.2522 17.3387 44.0798 17.2486 45.4005C17.1573 46.7384 17.1563 48.4389 17.1563 50.8335V51.4689H43.8438V50.8335C43.8438 48.4389 43.8427 46.7384 43.7514 45.4005C43.6613 44.0798 43.4896 43.2522 43.2149 42.589C42.3766 40.565 40.7685 38.9569 38.7445 38.1186C38.0813 37.8439 37.2537 37.6722 35.933 37.5821C34.5951 37.4908 32.8946 37.4897 30.5 37.4897C28.1054 37.4897 26.4049 37.4908 25.067 37.5821Z" fill="#49A399"/>
<path fill-rule="evenodd" clip-rule="evenodd" d="M48.6672 35.8259C49.1451 34.8879 50.293 34.5149 51.2311 34.9928C53.5027 36.1503 55.3497 37.9973 56.5072 40.269C57.2209 41.6699 57.53 43.2041 57.6782 45.0173C57.823 46.7904 57.823 48.9902 57.823 51.7661V53.3749C57.823 54.4277 56.9696 55.2812 55.9168 55.2812C54.864 55.2812 54.0105 54.4277 54.0105 53.3749V51.8499C54.0105 48.9716 54.009 46.9274 53.8783 45.3278C53.7495 43.7504 53.5045 42.7737 53.1102 41.9998M48.6672 35.8259C48.1892 36.7639 48.5622 37.9118 49.5002 38.3898L48.6672 35.8259ZM49.5002 38.3898C50.2999 38.7973 51.0227 39.3296 51.6438 39.9622C52.23 40.5591 52.7257 41.2452 53.1102 41.9998" fill="#49A399"/>
<path d="M51.6438 39.9622L48.6672 35.8259L49.5002 38.3898C50.2999 38.7973 51.0227 39.3296 51.6438 39.9622Z" fill="#49A399"/>
<path fill-rule="evenodd" clip-rule="evenodd" d="M12.3335 35.8259C12.8115 36.7639 12.4385 37.9118 11.5005 38.3898C9.94623 39.1818 8.68253 40.4455 7.89057 41.9998C7.49626 42.7737 7.2513 43.7503 7.12242 45.3278C6.99172 46.9274 6.99023 48.9716 6.99023 51.8499V53.3749C6.99023 54.4277 6.13678 55.2812 5.08398 55.2812C4.03119 55.2812 3.17773 54.4277 3.17773 53.3749L3.17773 51.7661C3.17772 48.9902 3.17771 46.7904 3.32258 45.0173C3.47072 43.2041 3.77981 41.6699 4.49361 40.269C5.65106 37.9973 7.49797 36.1503 9.76964 34.9929C10.7077 34.5149 11.8556 34.8878 12.3335 35.8259Z" fill="#49A399"/>
</svg>
