<svg width="61" height="61" viewBox="0 0 61 61" fill="none" xmlns="http://www.w3.org/2000/svg">
<path fill-rule="evenodd" clip-rule="evenodd" d="M13.9792 9.53125C11.5227 9.53125 9.53125 11.5227 9.53125 13.9792C9.53125 16.4357 11.5227 18.4271 13.9792 18.4271C16.4357 18.4271 18.4271 16.4357 18.4271 13.9792C18.4271 11.5227 16.4357 9.53125 13.9792 9.53125ZM5.71875 13.9792C5.71875 9.41706 9.41706 5.71875 13.9792 5.71875C18.5413 5.71875 22.2396 9.41706 22.2396 13.9792C22.2396 18.5413 18.5413 22.2396 13.9792 22.2396C9.41706 22.2396 5.71875 18.5413 5.71875 13.9792Z" fill="#49A399"/>
<path fill-rule="evenodd" clip-rule="evenodd" d="M47.0202 42.5728C44.5637 42.5728 42.5723 44.5642 42.5723 47.0207C42.5723 49.4772 44.5637 51.4686 47.0202 51.4686C49.4767 51.4686 51.4681 49.4772 51.4681 47.0207C51.4681 44.5642 49.4767 42.5728 47.0202 42.5728ZM38.7598 47.0207C38.7598 42.4586 42.4581 38.7603 47.0202 38.7603C51.5823 38.7603 55.2806 42.4586 55.2806 47.0207C55.2806 51.5828 51.5823 55.2811 47.0202 55.2811C42.4581 55.2811 38.7598 51.5828 38.7598 47.0207Z" fill="#49A399"/>
<path fill-rule="evenodd" clip-rule="evenodd" d="M54.7229 6.27708C55.4674 7.02151 55.4674 8.22849 54.7229 8.97292L8.97292 54.7229C8.22849 55.4674 7.02151 55.4674 6.27708 54.7229C5.53264 53.9785 5.53264 52.7715 6.27708 52.0271L52.0271 6.27708C52.7715 5.53264 53.9785 5.53264 54.7229 6.27708Z" fill="#49A399"/>
</svg>
