<svg width="19" height="18" viewBox="0 0 19 18" fill="none" xmlns="http://www.w3.org/2000/svg">
<path d="M6.13406 9.07285C6.88244 10.6183 8.13213 11.8648 9.67951 12.6092C9.79365 12.6633 9.9199 12.6866 10.0458 12.6771C10.1718 12.6675 10.293 12.6253 10.3977 12.5547L12.6704 11.0365C12.7708 10.9684 12.8869 10.9268 13.0077 10.9157C13.1285 10.9046 13.2502 10.9242 13.3613 10.9728L17.6159 12.8001C17.7613 12.8606 17.8828 12.9673 17.9616 13.1036C18.0405 13.24 18.0723 13.3984 18.0522 13.5547C17.9174 14.6072 17.4037 15.5744 16.6072 16.2755C15.8107 16.9767 14.7861 17.3635 13.725 17.3638C10.4459 17.3638 7.30119 16.0612 4.98255 13.7425C2.66392 11.4239 1.36133 8.27916 1.36133 5.00012C1.36157 3.93903 1.74843 2.91437 2.44953 2.1179C3.15063 1.32142 4.11793 0.807693 5.17042 0.672846C5.32664 0.652779 5.48512 0.684622 5.62146 0.763471C5.7578 0.842319 5.86444 0.963801 5.92496 1.10921L7.75224 5.37285C7.79976 5.48225 7.81963 5.60167 7.81012 5.72057C7.80061 5.83947 7.762 5.9542 7.69769 6.05466L6.17951 8.36376C6.11192 8.46819 6.07225 8.58822 6.06429 8.71237C6.05633 8.83652 6.08035 8.96063 6.13406 9.07285V9.07285Z" stroke="white" stroke-linecap="round" stroke-linejoin="round"/>
</svg>
