<svg width="193" height="44" viewBox="0 0 193 44" fill="none" xmlns="http://www.w3.org/2000/svg">
<path d="M10 7.84473H0V18.1573H10V7.84473Z" fill="#49A399"/>
<path d="M10 22.2822H0V32.5948H10V22.2822Z" fill="#49A399"/>
<path d="M24 22.2822H14V32.5948H24V22.2822Z" fill="#49A399"/>
<path d="M24.0601 8.49442L24.0001 7.84473L23.3601 8.05098C22.2701 8.42223 21.1101 8.53567 19.9601 8.38098C18.7601 8.19535 17.5301 8.36036 16.4201 8.84505C15.8301 9.09255 15.3201 9.47411 14.9201 9.96911C14.5201 10.4641 14.2601 11.0416 14.1501 11.6604C14.0101 12.4544 14.0801 13.2794 14.3601 14.0426C14.5401 13.6507 14.7501 13.2691 14.9901 12.8979C15.5301 12.1244 16.2701 11.5057 17.1501 11.1138C17.9901 10.7426 18.9101 10.5569 19.8301 10.5982C18.9501 10.7322 18.1101 11.0416 17.3601 11.5057C17.0001 11.7326 16.6701 12.0007 16.3701 12.2998C16.0901 12.6091 15.8401 12.9391 15.6301 13.2898C15.2401 14.0323 14.9601 14.8263 14.8001 15.6513C14.6301 16.4763 14.5401 17.3117 14.5201 18.1573H15.5801C15.6301 17.4045 15.7301 16.6517 15.8901 15.9092C16.6201 16.301 17.4501 16.497 18.2801 16.4867C19.0601 16.4867 19.8301 16.332 20.5501 16.0329C24.5901 14.352 24.0601 8.73161 24.0601 8.49442Z" fill="#49A399"/>
<path d="M127.124 32.5938V24.3288C127.124 23.4287 127.039 22.6037 126.869 21.8537C126.699 21.0937 126.424 20.4337 126.044 19.8737C125.674 19.3037 125.189 18.8637 124.589 18.5537C123.999 18.2437 123.279 18.0887 122.429 18.0887C121.649 18.0887 120.959 18.2237 120.359 18.4937C119.769 18.7637 119.269 19.1537 118.859 19.6637C118.459 20.1637 118.154 20.7737 117.944 21.4937C117.734 22.2137 117.629 23.0337 117.629 23.9537L116.069 23.6087C116.069 21.9487 116.359 20.5537 116.939 19.4237C117.519 18.2937 118.319 17.4387 119.339 16.8587C120.359 16.2787 121.529 15.9888 122.849 15.9888C123.819 15.9888 124.664 16.1387 125.384 16.4387C126.114 16.7387 126.729 17.1437 127.229 17.6537C127.739 18.1637 128.149 18.7487 128.459 19.4087C128.769 20.0587 128.994 20.7537 129.134 21.4937C129.274 22.2237 129.344 22.9537 129.344 23.6837V32.5938H127.124ZM115.409 32.5938V10.9937H117.404V23.1887H117.629V32.5938H115.409ZM140.002 33.0438C138.392 33.0438 137.017 32.6788 135.877 31.9487C134.737 31.2187 133.862 30.2087 133.252 28.9187C132.642 27.6287 132.337 26.1487 132.337 24.4787C132.337 22.7787 132.647 21.2887 133.267 20.0087C133.887 18.7287 134.767 17.7337 135.907 17.0237C137.057 16.3037 138.422 15.9437 140.002 15.9437C141.622 15.9437 143.002 16.3087 144.142 17.0387C145.292 17.7587 146.167 18.7637 146.767 20.0537C147.377 21.3337 147.682 22.8087 147.682 24.4787C147.682 26.1787 147.377 27.6737 146.767 28.9637C146.157 30.2437 145.277 31.2437 144.127 31.9637C142.977 32.6837 141.602 33.0438 140.002 33.0438ZM140.002 30.9287C141.802 30.9287 143.142 30.3337 144.022 29.1437C144.902 27.9437 145.342 26.3887 145.342 24.4787C145.342 22.5187 144.897 20.9587 144.007 19.7987C143.127 18.6387 141.792 18.0587 140.002 18.0587C138.792 18.0587 137.792 18.3337 137.002 18.8837C136.222 19.4237 135.637 20.1787 135.247 21.1487C134.867 22.1087 134.677 23.2187 134.677 24.4787C134.677 26.4287 135.127 27.9937 136.027 29.1737C136.927 30.3437 138.252 30.9287 140.002 30.9287ZM170.311 32.5938L170.326 21.9587C170.326 20.7087 169.976 19.7287 169.276 19.0187C168.586 18.2987 167.706 17.9387 166.636 17.9387C166.026 17.9387 165.431 18.0787 164.851 18.3587C164.271 18.6387 163.791 19.0887 163.411 19.7087C163.041 20.3287 162.856 21.1387 162.856 22.1387L161.551 21.7637C161.521 20.6037 161.746 19.5887 162.226 18.7187C162.716 17.8487 163.386 17.1737 164.236 16.6937C165.096 16.2037 166.066 15.9587 167.146 15.9587C168.776 15.9587 170.081 16.4637 171.061 17.4737C172.041 18.4737 172.531 19.8287 172.531 21.5387L172.516 32.5938H170.311ZM150.976 32.5938V16.3937H152.956V20.3837H153.196V32.5938H150.976ZM160.666 32.5938L160.681 22.1087C160.681 20.8187 160.336 19.8037 159.646 19.0637C158.966 18.3137 158.066 17.9387 156.946 17.9387C155.826 17.9387 154.921 18.3237 154.231 19.0937C153.541 19.8537 153.196 20.8687 153.196 22.1387L151.876 21.4187C151.876 20.3787 152.121 19.4487 152.611 18.6287C153.101 17.7987 153.771 17.1487 154.621 16.6787C155.471 16.1987 156.436 15.9587 157.516 15.9587C158.546 15.9587 159.461 16.1787 160.261 16.6187C161.071 17.0587 161.706 17.6987 162.166 18.5387C162.626 19.3787 162.856 20.3987 162.856 21.5987L162.841 32.5938H160.666ZM183.158 33.0438C181.578 33.0438 180.208 32.6937 179.048 31.9937C177.898 31.2937 177.003 30.3087 176.363 29.0387C175.723 27.7687 175.403 26.2787 175.403 24.5687C175.403 22.7987 175.718 21.2687 176.348 19.9787C176.978 18.6887 177.863 17.6937 179.003 16.9937C180.153 16.2937 181.508 15.9437 183.068 15.9437C184.668 15.9437 186.033 16.3137 187.163 17.0537C188.293 17.7837 189.148 18.8337 189.728 20.2037C190.308 21.5737 190.573 23.2087 190.523 25.1087H188.273V24.3288C188.233 22.2287 187.778 20.6437 186.908 19.5737C186.048 18.5037 184.788 17.9687 183.128 17.9687C181.388 17.9687 180.053 18.5337 179.123 19.6637C178.203 20.7937 177.743 22.4037 177.743 24.4937C177.743 26.5337 178.203 28.1187 179.123 29.2487C180.053 30.3687 181.368 30.9287 183.068 30.9287C184.228 30.9287 185.238 30.6637 186.098 30.1337C186.968 29.5937 187.653 28.8187 188.153 27.8087L190.208 28.6037C189.568 30.0137 188.623 31.1087 187.373 31.8887C186.133 32.6588 184.728 33.0438 183.158 33.0438ZM176.963 25.1087V23.2637H189.338V25.1087H176.963Z" fill="#151515"/>
<path d="M38.237 33.2166C36.577 33.2166 35.167 32.8466 34.007 32.1066C32.847 31.3666 31.957 30.3516 31.337 29.0616C30.727 27.7716 30.417 26.3066 30.407 24.6666C30.417 22.9966 30.737 21.5216 31.367 20.2416C31.997 18.9516 32.897 17.9416 34.067 17.2116C35.237 16.4816 36.642 16.1166 38.282 16.1166C40.052 16.1166 41.562 16.5566 42.812 17.4366C44.072 18.3166 44.902 19.5216 45.302 21.0516L42.182 21.9516C41.872 21.0416 41.362 20.3366 40.652 19.8366C39.952 19.3266 39.147 19.0716 38.237 19.0716C37.207 19.0716 36.362 19.3166 35.702 19.8066C35.042 20.2866 34.552 20.9466 34.232 21.7866C33.912 22.6266 33.747 23.5866 33.737 24.6666C33.747 26.3366 34.127 27.6866 34.877 28.7166C35.637 29.7466 36.757 30.2616 38.237 30.2616C39.247 30.2616 40.062 30.0316 40.682 29.5716C41.312 29.1016 41.792 28.4316 42.122 27.5616L45.302 28.3116C44.772 29.8916 43.897 31.1066 42.677 31.9566C41.457 32.7966 39.977 33.2166 38.237 33.2166ZM48.2184 32.7666V10.7166H51.3534V32.7666H48.2184ZM63.0428 33.2166C61.4328 33.2166 60.0178 32.8666 58.7978 32.1666C57.5878 31.4566 56.6428 30.4716 55.9628 29.2116C55.2928 27.9416 54.9578 26.4716 54.9578 24.8016C54.9578 23.0316 55.2878 21.4966 55.9478 20.1966C56.6178 18.8966 57.5478 17.8916 58.7378 17.1816C59.9278 16.4716 61.3128 16.1166 62.8928 16.1166C64.5428 16.1166 65.9478 16.5016 67.1078 17.2716C68.2678 18.0316 69.1328 19.1166 69.7028 20.5266C70.2828 21.9366 70.5128 23.6116 70.3928 25.5516H67.2578V24.4116C67.2378 22.5316 66.8778 21.1416 66.1778 20.2416C65.4878 19.3416 64.4328 18.8916 63.0128 18.8916C61.4428 18.8916 60.2628 19.3866 59.4728 20.3766C58.6828 21.3666 58.2878 22.7966 58.2878 24.6666C58.2878 26.4466 58.6828 27.8266 59.4728 28.8066C60.2628 29.7766 61.4028 30.2616 62.8928 30.2616C63.8728 30.2616 64.7178 30.0416 65.4278 29.6016C66.1478 29.1516 66.7078 28.5116 67.1078 27.6816L70.1828 28.6566C69.5528 30.1066 68.5978 31.2316 67.3178 32.0316C66.0378 32.8216 64.6128 33.2166 63.0428 33.2166ZM57.2678 25.5516V23.1066H68.8328V25.5516H57.2678ZM78.0402 33.2166C76.8402 33.2166 75.8352 32.9966 75.0252 32.5566C74.2152 32.1066 73.6002 31.5166 73.1802 30.7866C72.7702 30.0466 72.5652 29.2366 72.5652 28.3566C72.5652 27.5366 72.7102 26.8166 73.0002 26.1966C73.2902 25.5766 73.7202 25.0516 74.2902 24.6216C74.8602 24.1816 75.5602 23.8266 76.3902 23.5566C77.1102 23.3466 77.9252 23.1616 78.8352 23.0016C79.7452 22.8416 80.7002 22.6916 81.7002 22.5516C82.7102 22.4116 83.7102 22.2716 84.7002 22.1316L83.5602 22.7616C83.5802 21.4916 83.3102 20.5516 82.7502 19.9416C82.2002 19.3216 81.2502 19.0116 79.9002 19.0116C79.0502 19.0116 78.2702 19.2116 77.5602 19.6116C76.8502 20.0016 76.3552 20.6516 76.0752 21.5616L73.1502 20.6616C73.5502 19.2716 74.3102 18.1666 75.4302 17.3466C76.5602 16.5266 78.0602 16.1166 79.9302 16.1166C81.3802 16.1166 82.6402 16.3666 83.7102 16.8666C84.7902 17.3566 85.5802 18.1366 86.0802 19.2066C86.3402 19.7366 86.5002 20.2966 86.5602 20.8866C86.6202 21.4766 86.6502 22.1116 86.6502 22.7916V32.7666H83.8752V29.0616L84.4152 29.5416C83.7452 30.7816 82.8902 31.7066 81.8502 32.3166C80.8202 32.9166 79.5502 33.2166 78.0402 33.2166ZM78.5952 30.6516C79.4852 30.6516 80.2502 30.4966 80.8902 30.1866C81.5302 29.8666 82.0452 29.4616 82.4352 28.9716C82.8252 28.4816 83.0802 27.9716 83.2002 27.4416C83.3702 26.9616 83.4652 26.4216 83.4852 25.8216C83.5152 25.2216 83.5302 24.7416 83.5302 24.3816L84.5502 24.7566C83.5602 24.9066 82.6602 25.0416 81.8502 25.1616C81.0402 25.2816 80.3052 25.4016 79.6452 25.5216C78.9952 25.6316 78.4152 25.7666 77.9052 25.9266C77.4752 26.0766 77.0902 26.2566 76.7502 26.4666C76.4202 26.6766 76.1552 26.9316 75.9552 27.2316C75.7652 27.5316 75.6702 27.8966 75.6702 28.3266C75.6702 28.7466 75.7752 29.1366 75.9852 29.4966C76.1952 29.8466 76.5152 30.1266 76.9452 30.3366C77.3752 30.5466 77.9252 30.6516 78.5952 30.6516ZM101.915 32.7666V24.8016C101.915 24.1716 101.86 23.5266 101.75 22.8666C101.65 22.1966 101.45 21.5766 101.15 21.0066C100.86 20.4366 100.445 19.9766 99.9053 19.6266C99.3753 19.2766 98.6803 19.1016 97.8203 19.1016C97.2603 19.1016 96.7303 19.1966 96.2303 19.3866C95.7303 19.5666 95.2903 19.8616 94.9103 20.2716C94.5403 20.6816 94.2453 21.2216 94.0253 21.8916C93.8153 22.5616 93.7103 23.3766 93.7103 24.3366L91.7603 23.6016C91.7603 22.1316 92.0353 20.8366 92.5853 19.7166C93.1353 18.5866 93.9253 17.7066 94.9553 17.0766C95.9853 16.4466 97.2303 16.1316 98.6903 16.1316C99.8103 16.1316 100.75 16.3116 101.51 16.6716C102.27 17.0316 102.885 17.5066 103.355 18.0966C103.835 18.6766 104.2 19.3116 104.45 20.0016C104.7 20.6916 104.87 21.3666 104.96 22.0266C105.05 22.6866 105.095 23.2666 105.095 23.7666V32.7666H101.915ZM90.5303 32.7666V16.5666H93.3353V21.2466H93.7103V32.7666H90.5303Z" fill="#49A399"/>
</svg>
