<svg width="40" height="40" viewBox="0 0 40 40" fill="none" xmlns="http://www.w3.org/2000/svg">
<path d="M16.6092 0H0V16.6666H16.6092V0Z" fill="#49A399"/>
<path d="M16.6092 23.333H0V39.9996H16.6092V23.333Z" fill="#49A399"/>
<path d="M39.8622 23.333H23.2529V39.9996H39.8622V23.333Z" fill="#49A399"/>
<path d="M39.9618 1.05L39.8621 0L38.7991 0.333331C36.9887 0.933329 35.062 1.11666 33.152 0.866663C31.1589 0.566665 29.1159 0.83333 27.2723 1.61666C26.2924 2.01666 25.4453 2.63332 24.7809 3.43332C24.1165 4.23331 23.6847 5.16664 23.502 6.16664C23.2695 7.44997 23.3857 8.78329 23.8508 10.0166C24.1498 9.38329 24.4986 8.76663 24.8972 8.16663C25.7941 6.91663 27.0232 5.91664 28.4848 5.28331C29.88 4.68331 31.408 4.38331 32.9361 4.44998C31.4745 4.66665 30.0793 5.16664 28.8336 5.91664C28.2356 6.2833 27.6875 6.71664 27.1893 7.19997C26.7242 7.69996 26.309 8.2333 25.9602 8.79996C25.3124 9.99996 24.8474 11.2833 24.5816 12.6166C24.2992 13.9499 24.1498 15.2999 24.1166 16.6666H25.8771C25.9602 15.4499 26.1263 14.2333 26.392 13.0333C27.6045 13.6666 28.9831 13.9833 30.3616 13.9666C31.6571 13.9666 32.9361 13.7166 34.1319 13.2333C40.8421 10.5166 39.9618 1.43333 39.9618 1.05Z" fill="#49A399"/>
</svg>
