<svg width="61" height="61" fill="none" xmlns="http://www.w3.org/2000/svg"><path d="M12.986 48.014c-2.192-2.193-.738-6.791-1.858-9.484-1.12-2.693-5.41-5.052-5.41-8.03 0-2.979 4.242-5.242 5.41-8.03 1.167-2.788-.334-7.291 1.858-9.484 2.192-2.192 6.791-.738 9.484-1.858 2.693-1.12 5.052-5.41 8.03-5.41 2.978 0 5.242 4.242 8.03 5.41 2.788 1.167 7.291-.334 9.484 1.858 2.192 2.192.738 6.791 1.858 9.484 1.12 2.693 5.41 5.052 5.41 8.03 0 2.978-4.242 5.242-5.41 8.03-1.167 2.788.334 7.291-1.858 9.484-2.193 2.192-6.791.738-9.484 1.858-2.693 1.12-5.052 5.41-8.03 5.41-2.979 0-5.242-4.242-8.03-5.41-2.788-1.167-7.291.334-9.484-1.858z" stroke="#49A399" stroke-width="4" stroke-linecap="round" stroke-linejoin="round"/><path d="M40.984 24.781L26.997 38.125l-6.981-6.672" stroke="#49A399" stroke-width="4" stroke-linecap="round" stroke-linejoin="round"/></svg>