<svg width="61" height="61" fill="none" xmlns="http://www.w3.org/2000/svg"><path fill-rule="evenodd" clip-rule="evenodd" d="M25.416 12.073a5.719 5.719 0 00-5.719 5.718v.636h22.875v-.636a5.719 5.719 0 00-5.719-5.718H25.416zm-9.531 5.718a9.531 9.531 0 019.531-9.53h11.437a9.531 9.531 0 019.532 9.53v2.542a1.906 1.906 0 01-1.907 1.906H17.791a1.906 1.906 0 01-1.906-1.906v-2.541zM3.91 30.268a1.906 1.906 0 011.636-.346l24.8 6.2a.634.634 0 00.308 0l24.801-6.2a1.906 1.906 0 012.369 1.849v16.52a4.448 4.448 0 01-4.448 4.449H7.626a4.448 4.448 0 01-4.448-4.448V31.77c0-.587.27-1.141.733-1.503zm3.08 3.944v14.08c0 .35.285.635.636.635h45.75c.35 0 .635-.284.635-.635v-14.08L31.58 39.82a4.45 4.45 0 01-2.158 0L6.99 34.212z" fill="#49A399"/><path fill-rule="evenodd" clip-rule="evenodd" d="M3.178 22.875a4.448 4.448 0 014.448-4.448h45.75a4.448 4.448 0 014.448 4.448v11.438a1.906 1.906 0 01-3.813 0V22.875a.635.635 0 00-.635-.635H7.626a.635.635 0 00-.636.635v11.438a1.906 1.906 0 11-3.812 0V22.875z" fill="#49A399"/><path d="M33.676 29.23a3.177 3.177 0 11-6.354 0 3.177 3.177 0 016.354 0z" fill="#49A399"/></svg>