<svg width="61" height="61" fill="none" xmlns="http://www.w3.org/2000/svg"><path fill-rule="evenodd" clip-rule="evenodd" d="M10.167 29.865a.635.635 0 00-.636.635v22.875c0 .351.285.636.636.636h40.666a.635.635 0 00.636-.636V30.5a.635.635 0 00-.636-.635H10.167zm-4.448.635a4.448 4.448 0 014.448-4.448h40.666a4.448 4.448 0 014.448 4.448v22.875a4.448 4.448 0 01-4.448 4.448H10.167a4.448 4.448 0 01-4.448-4.448V30.5z" fill="#49A399"/><path fill-rule="evenodd" clip-rule="evenodd" d="M30.5 6.99c-5.966 0-10.803 4.836-10.803 10.802v10.166a1.906 1.906 0 01-3.812 0V17.793c0-8.072 6.543-14.615 14.614-14.615 8.072 0 14.615 6.543 14.615 14.615v10.166a1.906 1.906 0 11-3.813 0V17.793c0-5.966-4.836-10.802-10.802-10.802zm0 29.229c1.053 0 1.906.853 1.906 1.906v7.625a1.906 1.906 0 11-3.812 0v-7.625c0-1.053.853-1.906 1.906-1.906z" fill="#49A399"/></svg>