<svg width="61" height="61" fill="none" xmlns="http://www.w3.org/2000/svg"><path fill-rule="evenodd" clip-rule="evenodd" d="M19.697 16.52c0-5.965 4.837-10.801 10.802-10.801 5.966 0 10.802 4.836 10.802 10.802 0 5.966-4.836 10.802-10.802 10.802-5.965 0-10.802-4.836-10.802-10.802zM30.5 9.532a6.99 6.99 0 100 13.98 6.99 6.99 0 000-13.98zM16.814 8.129c.602.863.39 2.052-.473 2.654a6.98 6.98 0 00-2.997 5.738 6.985 6.985 0 003.389 5.992 1.906 1.906 0 11-1.968 3.265 10.797 10.797 0 01-5.234-9.257c0-3.673 1.835-6.916 4.628-8.865a1.906 1.906 0 012.655.473zm27.373 0a1.906 1.906 0 012.654-.473 10.792 10.792 0 014.628 8.865c0 3.672-1.834 6.916-4.628 8.865a1.906 1.906 0 11-2.181-3.127 6.98 6.98 0 002.996-5.738 6.98 6.98 0 00-2.996-5.738 1.906 1.906 0 01-.473-2.654zM30.43 33.677h.14c2.31 0 4.14 0 5.623.101 1.514.104 2.805.32 4.01.818a12.072 12.072 0 016.534 6.534c.5 1.205.715 2.496.818 4.011.101 1.483.101 3.313.101 5.623v2.611a1.906 1.906 0 01-1.906 1.906h-30.5a1.906 1.906 0 01-1.906-1.906v-2.611c0-2.31 0-4.14.1-5.623.104-1.515.32-2.806.819-4.011a12.072 12.072 0 016.534-6.534m9.633-.919c-2.31 0-4.14 0-5.622.101l5.622-.1zm-5.622.101c-1.515.104-2.806.32-4.011.818l4.01-.818zm.259 3.804c-1.32.09-2.148.262-2.811.537a8.26 8.26 0 00-4.47 4.47c-.276.663-.447 1.49-.537 2.812-.092 1.337-.093 3.038-.093 5.432v.636h26.688v-.636c0-2.394-.001-4.095-.093-5.432-.09-1.321-.261-2.149-.536-2.812a8.26 8.26 0 00-4.47-4.47c-.664-.275-1.491-.447-2.812-.537-1.338-.091-3.038-.092-5.433-.092s-4.095 0-5.433.092zm23.6-1.756a1.906 1.906 0 012.564-.833 12.074 12.074 0 015.276 5.276c.714 1.4 1.023 2.935 1.171 4.748.145 1.773.145 3.973.145 6.75v1.608a1.906 1.906 0 11-3.813 0V51.85c0-2.878-.001-4.923-.132-6.522-.129-1.578-.373-2.554-.768-3.328m-4.443-6.174a1.906 1.906 0 00.833 2.564l-.833-2.564zm.833 2.564A8.258 8.258 0 0153.11 42" fill="#49A399"/><path d="M51.644 39.962l-2.977-4.136.833 2.564c.8.407 1.523.94 2.144 1.572z" fill="#49A399"/><path fill-rule="evenodd" clip-rule="evenodd" d="M12.334 35.826a1.906 1.906 0 01-.833 2.564A8.26 8.26 0 007.89 42c-.395.774-.64 1.75-.769 3.328-.13 1.6-.132 3.644-.132 6.522v1.525a1.906 1.906 0 11-3.812 0v-1.609c0-2.776 0-4.976.145-6.749.148-1.813.457-3.347 1.17-4.748a12.072 12.072 0 015.277-5.276 1.906 1.906 0 012.564.833z" fill="#49A399"/></svg>