<svg width="32" height="32" viewBox="0 0 32 32" fill="none" xmlns="http://www.w3.org/2000/svg">
<path fill-rule="evenodd" clip-rule="evenodd" d="M18.0659 4.33331L18.0231 4.33353C15.6788 4.35724 13.7975 6.27688 13.8211 8.62122C13.8211 8.62124 13.8211 8.6212 13.8211 8.62122L13.83 9.49402L13.83 9.51716L13.7676 14.3246C13.7605 14.8717 13.3149 15.3116 12.7677 15.3116H9V18.3762H12.8301C13.3824 18.3762 13.8301 18.8239 13.8301 19.3762V27.6666H17.6802V19.3762C17.6802 18.8239 18.1279 18.3762 18.6802 18.3762H22.3629L22.8344 15.3116H18.6802C18.1279 15.3116 17.6802 14.8639 17.6802 14.3116V9.71105C17.6802 8.43459 18.7149 7.39978 19.9914 7.39978H23V4.33331H18.0659ZM18.0028 2.33363L18.0659 2.33331H24C24.5523 2.33331 25 2.78103 25 3.33331V8.39978C25 8.95206 24.5523 9.39978 24 9.39978H19.9914C19.8196 9.39978 19.6802 9.5391 19.6802 9.71105V13.3116H24C24.2918 13.3116 24.569 13.439 24.759 13.6604C24.9489 13.8819 25.0327 14.1753 24.9884 14.4636L24.2092 19.5282C24.1342 20.0161 23.7144 20.3762 23.2209 20.3762H19.6802V28.6666C19.6802 29.2189 19.2325 29.6666 18.6802 29.6666H12.8301C12.2778 29.6666 11.8301 29.2189 11.8301 28.6666V20.3762H8C7.44772 20.3762 7 19.9285 7 19.3762V14.3116C7 13.7593 7.44772 13.3116 8 13.3116H11.7806L11.83 9.50277L11.8213 8.64154C11.7864 5.1927 14.554 2.36855 18.0028 2.33363Z" fill="#49A399"/>
</svg>
