<svg width="30" height="30" viewBox="0 0 30 30" fill="none" xmlns="http://www.w3.org/2000/svg">
<path d="M10.3127 15.8086L20.8479 25.0781C20.9697 25.1859 21.1173 25.2601 21.2765 25.2936C21.4356 25.327 21.6007 25.3185 21.7555 25.2689C21.9104 25.2192 22.0497 25.1302 22.1597 25.0104C22.2697 24.8907 22.3467 24.7444 22.3831 24.5859L26.7893 5.34372C26.8263 5.17801 26.8175 5.00537 26.764 4.84424C26.7105 4.68311 26.6142 4.53954 26.4855 4.42885C26.3567 4.31815 26.2004 4.2445 26.033 4.21575C25.8657 4.187 25.6937 4.20423 25.5354 4.2656L3.90259 12.7617C3.0354 13.1015 3.15259 14.3672 4.06665 14.5547L10.3127 15.8086Z" stroke="#49A399" stroke-width="2" stroke-linecap="round" stroke-linejoin="round"/>
<path d="M10.3125 15.8086L26.2617 4.28906" stroke="#49A399" stroke-width="2" stroke-linecap="round" stroke-linejoin="round"/>
<path d="M15.5742 20.4375L11.918 24.0938C11.7875 24.2262 11.6207 24.3169 11.4386 24.3543C11.2565 24.3917 11.0674 24.3741 10.8953 24.3037C10.7232 24.2334 10.5759 24.1135 10.4721 23.9592C10.3684 23.805 10.3128 23.6234 10.3125 23.4375V15.8086" stroke="#49A399" stroke-width="2" stroke-linecap="round" stroke-linejoin="round"/>
</svg>
