<svg width="32" height="32" viewBox="0 0 32 32" fill="none" xmlns="http://www.w3.org/2000/svg">
<path fill-rule="evenodd" clip-rule="evenodd" d="M18.0659 4.3335L18.0231 4.33371C15.6788 4.35742 13.7975 6.27706 13.8211 8.6214C13.8211 8.62142 13.8211 8.62139 13.8211 8.6214L13.83 9.4942L13.83 9.51734L13.7676 14.3247C13.7605 14.8719 13.3149 15.3118 12.7677 15.3118H9V18.3764H12.8301C13.3824 18.3764 13.8301 18.8241 13.8301 19.3764V27.6668H17.6802V19.3764C17.6802 18.8241 18.1279 18.3764 18.6802 18.3764H22.3629L22.8344 15.3118H18.6802C18.1279 15.3118 17.6802 14.864 17.6802 14.3118V9.71123C17.6802 8.43478 18.7149 7.39996 19.9914 7.39996H23V4.3335H18.0659ZM18.0028 2.33381L18.0659 2.3335H24C24.5523 2.3335 25 2.78121 25 3.3335V8.39996C25 8.95225 24.5523 9.39996 24 9.39996H19.9914C19.8196 9.39996 19.6802 9.53928 19.6802 9.71123V13.3118H24C24.2918 13.3118 24.569 13.4392 24.759 13.6606C24.9489 13.8821 25.0327 14.1754 24.9884 14.4638L24.2092 19.5284C24.1342 20.0162 23.7144 20.3764 23.2209 20.3764H19.6802V28.6668C19.6802 29.2191 19.2325 29.6668 18.6802 29.6668H12.8301C12.2778 29.6668 11.8301 29.2191 11.8301 28.6668V20.3764H8C7.44772 20.3764 7 19.9286 7 19.3764V14.3118C7 13.7595 7.44772 13.3118 8 13.3118H11.7806L11.83 9.50296L11.8213 8.64172C11.7864 5.19289 14.554 2.36873 18.0028 2.33381Z" fill="white"/>
</svg>
