<svg width="27" height="27" viewBox="0 0 27 27" fill="none" xmlns="http://www.w3.org/2000/svg">
<path fill-rule="evenodd" clip-rule="evenodd" d="M4.21875 10.6875C4.21875 5.56159 8.37409 1.40625 13.5 1.40625C18.6259 1.40625 22.7812 5.56159 22.7812 10.6875C22.7812 14.6428 20.5161 18.3506 18.3741 20.9923C17.2902 22.3292 16.2083 23.4289 15.3977 24.1945C14.9919 24.5778 14.6527 24.8786 14.4134 25.0848C14.2937 25.1879 14.199 25.2675 14.1332 25.322C14.1003 25.3493 14.0747 25.3703 14.0568 25.3848L14.036 25.4017L14.03 25.4065L14.0282 25.408L14.0275 25.4085C14.0273 25.4087 14.0271 25.4089 13.5 24.75C12.9729 25.4089 12.9727 25.4087 12.9725 25.4085L12.9718 25.408L12.97 25.4065L12.964 25.4017L12.9432 25.3848C12.9253 25.3703 12.8997 25.3493 12.8668 25.322C12.801 25.2675 12.7063 25.1879 12.5866 25.0848C12.3473 24.8786 12.0081 24.5778 11.6023 24.1945C10.7917 23.4289 9.7098 22.3292 8.62586 20.9923C6.4839 18.3506 4.21875 14.6428 4.21875 10.6875ZM13.5 24.75L12.9729 25.4089C13.2811 25.6554 13.7189 25.6554 14.0271 25.4089L13.5 24.75ZM13.5 23.6425C13.7011 23.4653 13.952 23.2387 14.239 22.9676C15.0105 22.2391 16.0379 21.1942 17.0634 19.9295C19.1402 17.3682 21.0938 14.0447 21.0938 10.6875C21.0938 6.49357 17.6939 3.09375 13.5 3.09375C9.30607 3.09375 5.90625 6.49357 5.90625 10.6875C5.90625 14.0447 7.85985 17.3682 9.93664 19.9295C10.9621 21.1942 11.9895 22.2391 12.761 22.9676C13.048 23.2387 13.2989 23.4653 13.5 23.6425Z" fill="white"/>
<path fill-rule="evenodd" clip-rule="evenodd" d="M9.28125 10.6875C9.28125 8.35755 11.1701 6.46875 13.5 6.46875C15.8299 6.46875 17.7188 8.35755 17.7188 10.6875C17.7188 13.0174 15.8299 14.9062 13.5 14.9062C11.1701 14.9062 9.28125 13.0174 9.28125 10.6875ZM13.5 8.15625C12.102 8.15625 10.9688 9.28953 10.9688 10.6875C10.9688 12.0855 12.102 13.2187 13.5 13.2187C14.898 13.2187 16.0312 12.0855 16.0312 10.6875C16.0312 9.28953 14.898 8.15625 13.5 8.15625Z" fill="white"/>
</svg>
