<svg width="27" height="27" viewBox="0 0 27 27" fill="none" xmlns="http://www.w3.org/2000/svg">
<path fill-rule="evenodd" clip-rule="evenodd" d="M1.40625 5.0625C1.40625 4.59651 1.78401 4.21875 2.25 4.21875H24.75C25.216 4.21875 25.5938 4.59651 25.5938 5.0625V21.9375C25.5938 22.4035 25.216 22.7812 24.75 22.7812H2.25C1.78401 22.7812 1.40625 22.4035 1.40625 21.9375V5.0625ZM3.09375 5.90625V21.0938H23.9062V5.90625H3.09375Z" fill="white"/>
<path fill-rule="evenodd" clip-rule="evenodd" d="M1.57505 4.5563C1.85464 4.18351 2.38351 4.10796 2.7563 4.38755L13.5 12.4454L24.2438 4.38755C24.6166 4.10796 25.1455 4.18351 25.425 4.5563C25.7046 4.92909 25.6291 5.45796 25.2563 5.73755L14.0063 14.175C13.7063 14.4 13.2938 14.4 12.9938 14.175L1.7438 5.73755C1.37101 5.45796 1.29546 4.92909 1.57505 4.5563Z" fill="white"/>
<path fill-rule="evenodd" clip-rule="evenodd" d="M1.40625 5.0625C1.40625 4.59651 1.78401 4.21875 2.25 4.21875H13.5C13.966 4.21875 14.3438 4.59651 14.3438 5.0625C14.3438 5.52849 13.966 5.90625 13.5 5.90625H3.09375V13.5C3.09375 13.966 2.71599 14.3438 2.25 14.3438C1.78401 14.3438 1.40625 13.966 1.40625 13.5V5.0625Z" fill="white"/>
<path fill-rule="evenodd" clip-rule="evenodd" d="M12.6562 5.0625C12.6562 4.59651 13.034 4.21875 13.5 4.21875H24.75C25.216 4.21875 25.5938 4.59651 25.5938 5.0625V13.5C25.5938 13.966 25.216 14.3438 24.75 14.3438C24.284 14.3438 23.9062 13.966 23.9062 13.5V5.90625H13.5C13.034 5.90625 12.6562 5.52849 12.6562 5.0625Z" fill="white"/>
</svg>
