<svg width="27" height="27" viewBox="0 0 27 27" fill="none" xmlns="http://www.w3.org/2000/svg">
<path d="M13.1623 17.2441C14.9552 16.3759 16.4014 14.9261 17.265 13.1309C17.3277 12.9984 17.3548 12.852 17.3437 12.7059C17.3326 12.5598 17.2837 12.4191 17.2017 12.2977L15.4404 9.66094C15.3614 9.54444 15.3132 9.40983 15.3003 9.26966C15.2873 9.1295 15.3102 8.98834 15.3666 8.85938L17.4865 3.92344C17.5567 3.75474 17.6804 3.6138 17.8386 3.52233C17.9968 3.43085 18.1806 3.39391 18.3619 3.41719C19.5829 3.57363 20.7051 4.16963 21.5185 5.09367C22.3319 6.01771 22.7807 7.20647 22.781 8.4375C22.781 12.2417 21.2698 15.8901 18.5798 18.5801C15.8898 21.27 12.2415 22.7812 8.43726 22.7812C7.20623 22.781 6.01747 22.3321 5.09343 21.5188C4.16939 20.7054 3.57339 19.5832 3.41695 18.3621C3.39367 18.1809 3.43061 17.997 3.52209 17.8388C3.61356 17.6807 3.7545 17.5569 3.9232 17.4867L8.86968 15.3668C8.99661 15.3117 9.13515 15.2886 9.27309 15.2996C9.41104 15.3107 9.54415 15.3555 9.6607 15.4301L12.3396 17.1914C12.4608 17.2698 12.6 17.3158 12.7441 17.3251C12.8881 17.3343 13.0321 17.3064 13.1623 17.2441V17.2441Z" stroke="white" stroke-width="2" stroke-linecap="round" stroke-linejoin="round"/>
</svg>
