<svg width="30" height="30" viewBox="0 0 30 30" fill="none" xmlns="http://www.w3.org/2000/svg">
<path d="M10.3127 15.8085L20.8479 25.078C20.9697 25.1858 21.1173 25.2601 21.2765 25.2935C21.4356 25.327 21.6007 25.3185 21.7555 25.2688C21.9104 25.2192 22.0497 25.1301 22.1597 25.0104C22.2697 24.8906 22.3467 24.7443 22.3831 24.5858L26.7893 5.34366C26.8263 5.17795 26.8175 5.00531 26.764 4.84418C26.7105 4.68305 26.6142 4.53948 26.4855 4.42878C26.3567 4.31809 26.2004 4.24444 26.033 4.21569C25.8657 4.18694 25.6937 4.20417 25.5354 4.26554L3.90259 12.7616C3.0354 13.1015 3.15259 14.3671 4.06665 14.5546L10.3127 15.8085Z" stroke="white" stroke-width="2" stroke-linecap="round" stroke-linejoin="round"/>
<path d="M10.3125 15.8086L26.2617 4.28906" stroke="white" stroke-width="2" stroke-linecap="round" stroke-linejoin="round"/>
<path d="M15.5742 20.4375L11.918 24.0938C11.7875 24.2262 11.6207 24.3169 11.4386 24.3543C11.2565 24.3917 11.0674 24.3741 10.8953 24.3037C10.7232 24.2334 10.5759 24.1135 10.4721 23.9592C10.3684 23.805 10.3128 23.6234 10.3125 23.4375V15.8086" stroke="white" stroke-width="2" stroke-linecap="round" stroke-linejoin="round"/>
</svg>
