<svg width="61" height="61" fill="none" xmlns="http://www.w3.org/2000/svg"><path fill-rule="evenodd" clip-rule="evenodd" d="M13.98 9.531a4.448 4.448 0 100 8.896 4.448 4.448 0 000-8.896zM5.718 13.98a8.26 8.26 0 1116.52 0 8.26 8.26 0 01-16.52 0zM47.02 42.573a4.448 4.448 0 100 8.896 4.448 4.448 0 000-8.896zm-8.26 4.448a8.26 8.26 0 1116.52 0 8.26 8.26 0 01-16.52 0zM54.723 6.277a1.906 1.906 0 010 2.696l-45.75 45.75a1.906 1.906 0 11-2.696-2.696l45.75-45.75a1.906 1.906 0 012.696 0z" fill="#49A399"/></svg>