<svg width="168" height="32" fill="none" xmlns="http://www.w3.org/2000/svg"><g filter="url(#filter0_d_335_1962)" fill="#49A399"><path d="M16 2l3.09 6.26L26 9.27l-5 4.87 1.18 6.88L16 17.77l-6.18 3.25L11 14.14 6 9.27l6.91-1.01L16 2zm34 0l3.09 6.26L60 9.27l-5 4.87 1.18 6.88L50 17.77l-6.18 3.25L45 14.14l-5-4.87 6.91-1.01L50 2zm34 0l3.09 6.26L94 9.27l-5 4.87 1.18 6.88L84 17.77l-6.18 3.25L79 14.14l-5-4.87 6.91-1.01L84 2zm34 0l3.09 6.26L128 9.27l-5 4.87 1.18 6.88-6.18-3.25-6.18 3.25 1.18-6.88-5-4.87 6.91-1.01L118 2zm34 0l3.09 6.26L162 9.27l-5 4.87 1.18 6.88-6.18-3.25-6.18 3.25 1.18-6.88-5-4.87 6.91-1.01L152 2z"/></g><defs><filter id="filter0_d_335_1962" x="0" y="0" width="168" height="32" filterUnits="userSpaceOnUse" color-interpolation-filters="sRGB"><feFlood flood-opacity="0" result="BackgroundImageFix"/><feColorMatrix in="SourceAlpha" values="0 0 0 0 0 0 0 0 0 0 0 0 0 0 0 0 0 0 127 0" result="hardAlpha"/><feOffset dy="4"/><feGaussianBlur stdDeviation="2"/><feComposite in2="hardAlpha" operator="out"/><feColorMatrix values="0 0 0 0 0 0 0 0 0 0 0 0 0 0 0 0 0 0 0.25 0"/><feBlend in2="BackgroundImageFix" result="effect1_dropShadow_335_1962"/><feBlend in="SourceGraphic" in2="effect1_dropShadow_335_1962" result="shape"/></filter></defs></svg>