<svg width="40" height="40" fill="none" xmlns="http://www.w3.org/2000/svg"><path d="M16.61 0H0v16.667h16.61V0zm0 23.333H0V40h16.61V23.333zm23.252 0h-16.61V40h16.61V23.333zm.1-22.283l-.1-1.05L38.8.333c-1.81.6-3.737.784-5.647.534a10.914 10.914 0 00-5.88.75 6.32 6.32 0 00-2.491 1.816 5.923 5.923 0 00-1.279 2.734 7.255 7.255 0 00.349 3.85c.299-.634.648-1.25 1.046-1.85a8.618 8.618 0 013.588-2.884c1.395-.6 2.923-.9 4.451-.833a11.114 11.114 0 00-4.102 1.467c-.598.366-1.146.8-1.645 1.283-.465.5-.88 1.033-1.229 1.6a13.644 13.644 0 00-1.378 3.817 22.083 22.083 0 00-.465 4.05h1.76c.083-1.217.25-2.434.515-3.634a8.39 8.39 0 003.97.934c1.295 0 2.574-.25 3.77-.734 6.71-2.716 5.83-11.8 5.83-12.183z" fill="#49A399"/></svg>