<svg width="193" height="44" fill="none" xmlns="http://www.w3.org/2000/svg"><path d="M10 7.845H0v10.312h10V7.845zm0 14.437H0v10.313h10V22.282zm14 0H14v10.313h10V22.282zm.06-13.788l-.06-.65-.64.207a7.448 7.448 0 01-3.4.33 6.41 6.41 0 00-3.54.464c-.59.248-1.1.63-1.5 1.124a3.71 3.71 0 00-.77 1.691c-.14.794-.07 1.62.21 2.383.18-.392.39-.774.63-1.145a5.218 5.218 0 012.16-1.784 5.987 5.987 0 012.68-.516c-.88.134-1.72.444-2.47.908-.36.227-.69.495-.99.794-.28.31-.53.64-.74.99a8.593 8.593 0 00-.83 2.361c-.17.825-.26 1.66-.28 2.506h1.06c.05-.753.15-1.505.31-2.248.73.392 1.56.588 2.39.578.78 0 1.55-.155 2.27-.454 4.04-1.681 3.51-7.301 3.51-7.539z" fill="#49A399"/><path d="M127.124 32.594v-8.265c0-.9-.085-1.725-.255-2.475-.17-.76-.445-1.42-.825-1.98a3.771 3.771 0 00-1.455-1.32c-.59-.31-1.31-.465-2.16-.465-.78 0-1.47.135-2.07.405-.59.27-1.09.66-1.5 1.17-.4.5-.705 1.11-.915 1.83-.21.72-.315 1.54-.315 2.46l-1.56-.345c0-1.66.29-3.055.87-4.185.58-1.13 1.38-1.985 2.4-2.565 1.02-.58 2.19-.87 3.51-.87.97 0 1.815.15 2.535.45.73.3 1.345.705 1.845 1.215.51.51.92 1.095 1.23 1.755.31.65.535 1.345.675 2.085.14.73.21 1.46.21 2.19v8.91h-2.22zm-11.715 0v-21.6h1.995v12.195h.225v9.405h-2.22zm24.593.45c-1.61 0-2.985-.365-4.125-1.095-1.14-.73-2.015-1.74-2.625-3.03-.61-1.29-.915-2.77-.915-4.44 0-1.7.31-3.19.93-4.47.62-1.28 1.5-2.275 2.64-2.985 1.15-.72 2.515-1.08 4.095-1.08 1.62 0 3 .365 4.14 1.095 1.15.72 2.025 1.725 2.625 3.015.61 1.28.915 2.755.915 4.425 0 1.7-.305 3.195-.915 4.485-.61 1.28-1.49 2.28-2.64 3-1.15.72-2.525 1.08-4.125 1.08zm0-2.115c1.8 0 3.14-.595 4.02-1.785.88-1.2 1.32-2.755 1.32-4.665 0-1.96-.445-3.52-1.335-4.68-.88-1.16-2.215-1.74-4.005-1.74-1.21 0-2.21.275-3 .825-.78.54-1.365 1.295-1.755 2.265-.38.96-.57 2.07-.57 3.33 0 1.95.45 3.515 1.35 4.695.9 1.17 2.225 1.755 3.975 1.755zm30.309 1.665l.015-10.635c0-1.25-.35-2.23-1.05-2.94-.69-.72-1.57-1.08-2.64-1.08-.61 0-1.205.14-1.785.42-.58.28-1.06.73-1.44 1.35-.37.62-.555 1.43-.555 2.43l-1.305-.375c-.03-1.16.195-2.175.675-3.045a5.217 5.217 0 012.01-2.025c.86-.49 1.83-.735 2.91-.735 1.63 0 2.935.505 3.915 1.515.98 1 1.47 2.355 1.47 4.065l-.015 11.055h-2.205zm-19.335 0v-16.2h1.98v3.99h.24v12.21h-2.22zm9.69 0l.015-10.485c0-1.29-.345-2.305-1.035-3.045-.68-.75-1.58-1.125-2.7-1.125s-2.025.385-2.715 1.155c-.69.76-1.035 1.775-1.035 3.045l-1.32-.72c0-1.04.245-1.97.735-2.79a5.23 5.23 0 012.01-1.95c.85-.48 1.815-.72 2.895-.72 1.03 0 1.945.22 2.745.66.81.44 1.445 1.08 1.905 1.92.46.84.69 1.86.69 3.06l-.015 10.995h-2.175zm22.492.45c-1.58 0-2.95-.35-4.11-1.05-1.15-.7-2.045-1.685-2.685-2.955-.64-1.27-.96-2.76-.96-4.47 0-1.77.315-3.3.945-4.59.63-1.29 1.515-2.285 2.655-2.985 1.15-.7 2.505-1.05 4.065-1.05 1.6 0 2.965.37 4.095 1.11 1.13.73 1.985 1.78 2.565 3.15.58 1.37.845 3.005.795 4.905h-2.25v-.78c-.04-2.1-.495-3.685-1.365-4.755-.86-1.07-2.12-1.605-3.78-1.605-1.74 0-3.075.565-4.005 1.695-.92 1.13-1.38 2.74-1.38 4.83 0 2.04.46 3.625 1.38 4.755.93 1.12 2.245 1.68 3.945 1.68 1.16 0 2.17-.265 3.03-.795.87-.54 1.555-1.315 2.055-2.325l2.055.795c-.64 1.41-1.585 2.505-2.835 3.285-1.24.77-2.645 1.155-4.215 1.155zm-6.195-7.935v-1.845h12.375v1.845h-12.375z" fill="#151515"/><path d="M38.237 33.217c-1.66 0-3.07-.37-4.23-1.11-1.16-.74-2.05-1.755-2.67-3.045-.61-1.29-.92-2.755-.93-4.395.01-1.67.33-3.145.96-4.425.63-1.29 1.53-2.3 2.7-3.03 1.17-.73 2.575-1.095 4.215-1.095 1.77 0 3.28.44 4.53 1.32 1.26.88 2.09 2.085 2.49 3.615l-3.12.9c-.31-.91-.82-1.615-1.53-2.115-.7-.51-1.505-.765-2.415-.765-1.03 0-1.875.245-2.535.735-.66.48-1.15 1.14-1.47 1.98-.32.84-.485 1.8-.495 2.88.01 1.67.39 3.02 1.14 4.05.76 1.03 1.88 1.545 3.36 1.545 1.01 0 1.825-.23 2.445-.69.63-.47 1.11-1.14 1.44-2.01l3.18.75c-.53 1.58-1.405 2.795-2.625 3.645-1.22.84-2.7 1.26-4.44 1.26zm9.981-.45v-22.05h3.135v22.05h-3.135zm14.825.45c-1.61 0-3.025-.35-4.245-1.05a7.467 7.467 0 01-2.835-2.955c-.67-1.27-1.005-2.74-1.005-4.41 0-1.77.33-3.305.99-4.605.67-1.3 1.6-2.305 2.79-3.015s2.575-1.065 4.155-1.065c1.65 0 3.055.385 4.215 1.155 1.16.76 2.025 1.845 2.595 3.255.58 1.41.81 3.085.69 5.025h-3.135v-1.14c-.02-1.88-.38-3.27-1.08-4.17-.69-.9-1.745-1.35-3.165-1.35-1.57 0-2.75.495-3.54 1.485-.79.99-1.185 2.42-1.185 4.29 0 1.78.395 3.16 1.185 4.14.79.97 1.93 1.455 3.42 1.455.98 0 1.825-.22 2.535-.66.72-.45 1.28-1.09 1.68-1.92l3.075.975c-.63 1.45-1.585 2.575-2.865 3.375-1.28.79-2.705 1.185-4.275 1.185zm-5.775-7.665v-2.445h11.565v2.445H57.268zm20.772 7.665c-1.2 0-2.205-.22-3.015-.66-.81-.45-1.425-1.04-1.845-1.77a4.93 4.93 0 01-.615-2.43c0-.82.145-1.54.435-2.16.29-.62.72-1.145 1.29-1.575.57-.44 1.27-.795 2.1-1.065.72-.21 1.535-.395 2.445-.555.91-.16 1.865-.31 2.865-.45 1.01-.14 2.01-.28 3-.42l-1.14.63c.02-1.27-.25-2.21-.81-2.82-.55-.62-1.5-.93-2.85-.93-.85 0-1.63.2-2.34.6-.71.39-1.205 1.04-1.485 1.95l-2.925-.9c.4-1.39 1.16-2.495 2.28-3.315 1.13-.82 2.63-1.23 4.5-1.23 1.45 0 2.71.25 3.78.75 1.08.49 1.87 1.27 2.37 2.34.26.53.42 1.09.48 1.68.06.59.09 1.225.09 1.905v9.975h-2.775v-3.705l.54.48c-.67 1.24-1.525 2.165-2.565 2.775-1.03.6-2.3.9-3.81.9zm.555-2.565c.89 0 1.655-.155 2.295-.465.64-.32 1.155-.725 1.545-1.215.39-.49.645-1 .765-1.53.17-.48.265-1.02.285-1.62.03-.6.045-1.08.045-1.44l1.02.375c-.99.15-1.89.285-2.7.405-.81.12-1.545.24-2.205.36-.65.11-1.23.245-1.74.405-.43.15-.815.33-1.155.54-.33.21-.595.465-.795.765-.19.3-.285.665-.285 1.095 0 .42.105.81.315 1.17.21.35.53.63.96.84.43.21.98.315 1.65.315zm23.32 2.115v-7.965c0-.63-.055-1.275-.165-1.935a5.8 5.8 0 00-.6-1.86 3.522 3.522 0 00-1.245-1.38c-.53-.35-1.225-.525-2.085-.525-.56 0-1.09.095-1.59.285-.5.18-.94.475-1.32.885-.37.41-.665.95-.885 1.62-.21.67-.315 1.485-.315 2.445l-1.95-.735c0-1.47.275-2.765.825-3.885.55-1.13 1.34-2.01 2.37-2.64 1.03-.63 2.275-.945 3.735-.945 1.12 0 2.06.18 2.82.54.76.36 1.375.835 1.845 1.425.48.58.845 1.215 1.095 1.905s.42 1.365.51 2.025c.09.66.135 1.24.135 1.74v9h-3.18zm-11.385 0v-16.2h2.805v4.68h.375v11.52h-3.18z" fill="#49A399"/></svg>