<svg width="32" height="32" fill="none" xmlns="http://www.w3.org/2000/svg"><path fill-rule="evenodd" clip-rule="evenodd" d="M18.066 4.333h-.043a4.245 4.245 0 00-4.202 4.288l.009.873v.023l-.062 4.808a1 1 0 01-1 .987H9v3.064h3.83a1 1 0 011 1v8.29h3.85v-8.29a1 1 0 011-1h3.683l.471-3.064H18.68a1 1 0 01-1-1v-4.6A2.311 2.311 0 0119.991 7.4H23V4.333h-4.934zm-.063-2H24a1 1 0 011 1V8.4a1 1 0 01-1 1h-4.009a.311.311 0 00-.31.311v3.6H24a1 1 0 01.988 1.153l-.779 5.064a1 1 0 01-.988.848h-3.54v8.29a1 1 0 01-1 1h-5.85a1 1 0 01-1-1v-8.29H8a1 1 0 01-1-1v-5.064a1 1 0 011-1h3.78l.05-3.809-.009-.861a6.245 6.245 0 016.182-6.308z" fill="#fff"/></svg>